<svg width="280" height="104" viewBox="0 0 280 104" fill="none" xmlns="http://www.w3.org/2000/svg">
<g clip-path="url(#clip0_4_2)">
<g clip-path="url(#clip1_4_2)">
<path d="M26.6931 19.0805C32.9208 8.54265 46.512 5.04856 57.0499 11.2763V11.2763L19.0805 75.524L-2.42073e-05 64.2477L26.6931 19.0805Z" fill="#35C566"/>
<path d="M49.7945 83.8169C43.0666 95.2009 28.384 98.9756 17 92.2478V92.2478L54.9694 28.0001L75.5821 40.1818L49.7945 83.8169Z" fill="#0A6A4D"/>
</g>
<path d="M92.792 37.552C92.792 35.888 93.152 34.408 93.872 33.112C94.592 31.8 95.592 30.784 96.872 30.064C98.168 29.328 99.632 28.96 101.264 28.96C103.264 28.96 104.976 29.488 106.4 30.544C107.824 31.6 108.776 33.04 109.256 34.864H104.744C104.408 34.16 103.928 33.624 103.304 33.256C102.696 32.888 102 32.704 101.216 32.704C99.952 32.704 98.928 33.144 98.144 34.024C97.36 34.904 96.968 36.08 96.968 37.552C96.968 39.024 97.36 40.2 98.144 41.08C98.928 41.96 99.952 42.4 101.216 42.4C102 42.4 102.696 42.216 103.304 41.848C103.928 41.48 104.408 40.944 104.744 40.24H109.256C108.776 42.064 107.824 43.504 106.4 44.56C104.976 45.6 103.264 46.12 101.264 46.12C99.632 46.12 98.168 45.76 96.872 45.04C95.592 44.304 94.592 43.288 93.872 41.992C93.152 40.696 92.792 39.216 92.792 37.552ZM115.873 34.84C116.353 34.104 116.953 33.528 117.673 33.112C118.393 32.68 119.193 32.464 120.073 32.464V36.808H118.945C117.921 36.808 117.153 37.032 116.641 37.48C116.129 37.912 115.873 38.68 115.873 39.784V46H111.769V32.608H115.873V34.84ZM134.659 39.088C134.659 39.472 134.635 39.872 134.587 40.288H125.299C125.363 41.12 125.627 41.76 126.091 42.208C126.571 42.64 127.155 42.856 127.843 42.856C128.867 42.856 129.579 42.424 129.979 41.56H134.347C134.123 42.44 133.715 43.232 133.123 43.936C132.547 44.64 131.819 45.192 130.939 45.592C130.059 45.992 129.075 46.192 127.987 46.192C126.675 46.192 125.507 45.912 124.483 45.352C123.459 44.792 122.659 43.992 122.083 42.952C121.507 41.912 121.219 40.696 121.219 39.304C121.219 37.912 121.499 36.696 122.059 35.656C122.635 34.616 123.435 33.816 124.459 33.256C125.483 32.696 126.659 32.416 127.987 32.416C129.283 32.416 130.435 32.688 131.443 33.232C132.451 33.776 133.235 34.552 133.795 35.56C134.371 36.568 134.659 37.744 134.659 39.088ZM130.459 38.008C130.459 37.304 130.219 36.744 129.739 36.328C129.259 35.912 128.659 35.704 127.939 35.704C127.251 35.704 126.667 35.904 126.187 36.304C125.723 36.704 125.435 37.272 125.323 38.008H130.459ZM136.008 39.28C136.008 37.904 136.264 36.696 136.776 35.656C137.304 34.616 138.016 33.816 138.912 33.256C139.808 32.696 140.808 32.416 141.912 32.416C142.856 32.416 143.68 32.608 144.384 32.992C145.104 33.376 145.656 33.88 146.04 34.504V32.608H150.144V46H146.04V44.104C145.64 44.728 145.08 45.232 144.36 45.616C143.656 46 142.832 46.192 141.888 46.192C140.8 46.192 139.808 45.912 138.912 45.352C138.016 44.776 137.304 43.968 136.776 42.928C136.264 41.872 136.008 40.656 136.008 39.28ZM146.04 39.304C146.04 38.28 145.752 37.472 145.176 36.88C144.616 36.288 143.928 35.992 143.112 35.992C142.296 35.992 141.6 36.288 141.024 36.88C140.464 37.456 140.184 38.256 140.184 39.28C140.184 40.304 140.464 41.12 141.024 41.728C141.6 42.32 142.296 42.616 143.112 42.616C143.928 42.616 144.616 42.32 145.176 41.728C145.752 41.136 146.04 40.328 146.04 39.304ZM160.577 42.52V46H158.489C157.001 46 155.841 45.64 155.009 44.92C154.177 44.184 153.761 42.992 153.761 41.344V36.016H152.129V32.608H153.761V29.344H157.865V32.608H160.553V36.016H157.865V41.392C157.865 41.792 157.961 42.08 158.153 42.256C158.345 42.432 158.665 42.52 159.113 42.52H160.577ZM164.927 31.216C164.207 31.216 163.615 31.008 163.151 30.592C162.703 30.16 162.479 29.632 162.479 29.008C162.479 28.368 162.703 27.84 163.151 27.424C163.615 26.992 164.207 26.776 164.927 26.776C165.631 26.776 166.207 26.992 166.655 27.424C167.119 27.84 167.351 28.368 167.351 29.008C167.351 29.632 167.119 30.16 166.655 30.592C166.207 31.008 165.631 31.216 164.927 31.216ZM166.967 32.608V46H162.863V32.608H166.967ZM175.965 42.16L178.869 32.608H183.237L178.485 46H173.421L168.669 32.608H173.061L175.965 42.16ZM197.589 39.088C197.589 39.472 197.565 39.872 197.517 40.288H188.229C188.293 41.12 188.557 41.76 189.021 42.208C189.501 42.64 190.085 42.856 190.773 42.856C191.797 42.856 192.509 42.424 192.909 41.56H197.277C197.053 42.44 196.645 43.232 196.053 43.936C195.477 44.64 194.749 45.192 193.869 45.592C192.989 45.992 192.005 46.192 190.917 46.192C189.605 46.192 188.437 45.912 187.413 45.352C186.389 44.792 185.589 43.992 185.013 42.952C184.437 41.912 184.149 40.696 184.149 39.304C184.149 37.912 184.429 36.696 184.989 35.656C185.565 34.616 186.365 33.816 187.389 33.256C188.413 32.696 189.589 32.416 190.917 32.416C192.213 32.416 193.365 32.688 194.373 33.232C195.381 33.776 196.165 34.552 196.725 35.56C197.301 36.568 197.589 37.744 197.589 39.088ZM193.389 38.008C193.389 37.304 193.149 36.744 192.669 36.328C192.189 35.912 191.589 35.704 190.869 35.704C190.181 35.704 189.597 35.904 189.117 36.304C188.653 36.704 188.365 37.272 188.253 38.008H193.389ZM223.92 29.152V46H219.816V35.896L216.048 46H212.736L208.944 35.872V46H204.84V29.152H209.688L214.416 40.816L219.096 29.152H223.92ZM228.935 31.216C228.215 31.216 227.623 31.008 227.159 30.592C226.711 30.16 226.487 29.632 226.487 29.008C226.487 28.368 226.711 27.84 227.159 27.424C227.623 26.992 228.215 26.776 228.935 26.776C229.639 26.776 230.215 26.992 230.663 27.424C231.127 27.84 231.359 28.368 231.359 29.008C231.359 29.632 231.127 30.16 230.663 30.592C230.215 31.008 229.639 31.216 228.935 31.216ZM230.975 32.608V46H226.871V32.608H230.975ZM242.109 32.464C243.677 32.464 244.925 32.976 245.853 34C246.797 35.008 247.269 36.4 247.269 38.176V46H243.189V38.728C243.189 37.832 242.957 37.136 242.493 36.64C242.029 36.144 241.405 35.896 240.621 35.896C239.837 35.896 239.213 36.144 238.749 36.64C238.285 37.136 238.053 37.832 238.053 38.728V46H233.949V32.608H238.053V34.384C238.469 33.792 239.029 33.328 239.733 32.992C240.437 32.64 241.229 32.464 242.109 32.464ZM249.305 39.28C249.305 37.904 249.561 36.696 250.073 35.656C250.601 34.616 251.313 33.816 252.209 33.256C253.105 32.696 254.105 32.416 255.209 32.416C256.089 32.416 256.889 32.6 257.609 32.968C258.345 33.336 258.921 33.832 259.337 34.456V28.24H263.441V46H259.337V44.08C258.953 44.72 258.401 45.232 257.681 45.616C256.977 46 256.153 46.192 255.209 46.192C254.105 46.192 253.105 45.912 252.209 45.352C251.313 44.776 250.601 43.968 250.073 42.928C249.561 41.872 249.305 40.656 249.305 39.28ZM259.337 39.304C259.337 38.28 259.049 37.472 258.473 36.88C257.913 36.288 257.225 35.992 256.409 35.992C255.593 35.992 254.897 36.288 254.321 36.88C253.761 37.456 253.481 38.256 253.481 39.28C253.481 40.304 253.761 41.12 254.321 41.728C254.897 42.32 255.593 42.616 256.409 42.616C257.225 42.616 257.913 42.32 258.473 41.728C259.049 41.136 259.337 40.328 259.337 39.304ZM271.858 46.192C270.69 46.192 269.65 45.992 268.738 45.592C267.826 45.192 267.106 44.648 266.578 43.96C266.05 43.256 265.754 42.472 265.69 41.608H269.746C269.794 42.072 270.01 42.448 270.394 42.736C270.778 43.024 271.25 43.168 271.81 43.168C272.322 43.168 272.714 43.072 272.986 42.88C273.274 42.672 273.418 42.408 273.418 42.088C273.418 41.704 273.218 41.424 272.818 41.248C272.418 41.056 271.77 40.848 270.874 40.624C269.914 40.4 269.114 40.168 268.474 39.928C267.834 39.672 267.282 39.28 266.818 38.752C266.354 38.208 266.122 37.48 266.122 36.568C266.122 35.8 266.33 35.104 266.746 34.48C267.178 33.84 267.802 33.336 268.618 32.968C269.45 32.6 270.434 32.416 271.57 32.416C273.25 32.416 274.57 32.832 275.53 33.664C276.506 34.496 277.066 35.6 277.21 36.976H273.418C273.354 36.512 273.146 36.144 272.794 35.872C272.458 35.6 272.01 35.464 271.45 35.464C270.97 35.464 270.602 35.56 270.346 35.752C270.09 35.928 269.962 36.176 269.962 36.496C269.962 36.88 270.162 37.168 270.562 37.36C270.978 37.552 271.618 37.744 272.482 37.936C273.474 38.192 274.282 38.448 274.906 38.704C275.53 38.944 276.074 39.344 276.538 39.904C277.018 40.448 277.266 41.184 277.282 42.112C277.282 42.896 277.058 43.6 276.61 44.224C276.178 44.832 275.546 45.312 274.714 45.664C273.898 46.016 272.946 46.192 271.858 46.192ZM97.592 65.152V82H93.488V65.152H97.592ZM108.726 68.464C110.294 68.464 111.542 68.976 112.47 70C113.414 71.008 113.886 72.4 113.886 74.176V82H109.806V74.728C109.806 73.832 109.574 73.136 109.11 72.64C108.646 72.144 108.022 71.896 107.238 71.896C106.454 71.896 105.83 72.144 105.366 72.64C104.902 73.136 104.67 73.832 104.67 74.728V82H100.566V68.608H104.67V70.384C105.086 69.792 105.646 69.328 106.35 68.992C107.054 68.64 107.846 68.464 108.726 68.464ZM124.898 68.464C126.466 68.464 127.714 68.976 128.642 70C129.586 71.008 130.058 72.4 130.058 74.176V82H125.978V74.728C125.978 73.832 125.746 73.136 125.282 72.64C124.818 72.144 124.194 71.896 123.41 71.896C122.626 71.896 122.002 72.144 121.538 72.64C121.074 73.136 120.842 73.832 120.842 74.728V82H116.738V68.608H120.842V70.384C121.258 69.792 121.818 69.328 122.522 68.992C123.226 68.64 124.018 68.464 124.898 68.464ZM139.006 82.192C137.694 82.192 136.51 81.912 135.454 81.352C134.414 80.792 133.59 79.992 132.982 78.952C132.39 77.912 132.094 76.696 132.094 75.304C132.094 73.928 132.398 72.72 133.006 71.68C133.614 70.624 134.446 69.816 135.502 69.256C136.558 68.696 137.742 68.416 139.054 68.416C140.366 68.416 141.55 68.696 142.606 69.256C143.662 69.816 144.494 70.624 145.102 71.68C145.71 72.72 146.014 73.928 146.014 75.304C146.014 76.68 145.702 77.896 145.078 78.952C144.47 79.992 143.63 80.792 142.558 81.352C141.502 81.912 140.318 82.192 139.006 82.192ZM139.006 78.64C139.79 78.64 140.454 78.352 140.998 77.776C141.558 77.2 141.838 76.376 141.838 75.304C141.838 74.232 141.566 73.408 141.022 72.832C140.494 72.256 139.838 71.968 139.054 71.968C138.254 71.968 137.59 72.256 137.062 72.832C136.534 73.392 136.27 74.216 136.27 75.304C136.27 76.376 136.526 77.2 137.038 77.776C137.566 78.352 138.222 78.64 139.006 78.64ZM154.215 78.16L157.119 68.608H161.487L156.735 82H151.671L146.919 68.608H151.311L154.215 78.16ZM162.399 75.28C162.399 73.904 162.655 72.696 163.167 71.656C163.695 70.616 164.407 69.816 165.303 69.256C166.199 68.696 167.199 68.416 168.303 68.416C169.247 68.416 170.071 68.608 170.775 68.992C171.495 69.376 172.047 69.88 172.431 70.504V68.608H176.535V82H172.431V80.104C172.031 80.728 171.471 81.232 170.751 81.616C170.047 82 169.223 82.192 168.279 82.192C167.191 82.192 166.199 81.912 165.303 81.352C164.407 80.776 163.695 79.968 163.167 78.928C162.655 77.872 162.399 76.656 162.399 75.28ZM172.431 75.304C172.431 74.28 172.143 73.472 171.567 72.88C171.007 72.288 170.319 71.992 169.503 71.992C168.687 71.992 167.991 72.288 167.415 72.88C166.855 73.456 166.575 74.256 166.575 75.28C166.575 76.304 166.855 77.12 167.415 77.728C167.991 78.32 168.687 78.616 169.503 78.616C170.319 78.616 171.007 78.32 171.567 77.728C172.143 77.136 172.431 76.328 172.431 75.304ZM186.968 78.52V82H184.88C183.392 82 182.232 81.64 181.4 80.92C180.568 80.184 180.152 78.992 180.152 77.344V72.016H178.52V68.608H180.152V65.344H184.256V68.608H186.944V72.016H184.256V77.392C184.256 77.792 184.352 78.08 184.544 78.256C184.736 78.432 185.056 78.52 185.504 78.52H186.968ZM201.878 75.088C201.878 75.472 201.854 75.872 201.806 76.288H192.518C192.582 77.12 192.846 77.76 193.31 78.208C193.79 78.64 194.374 78.856 195.062 78.856C196.086 78.856 196.798 78.424 197.198 77.56H201.566C201.342 78.44 200.934 79.232 200.342 79.936C199.766 80.64 199.038 81.192 198.158 81.592C197.278 81.992 196.294 82.192 195.206 82.192C193.894 82.192 192.726 81.912 191.702 81.352C190.678 80.792 189.878 79.992 189.302 78.952C188.726 77.912 188.438 76.696 188.438 75.304C188.438 73.912 188.718 72.696 189.278 71.656C189.854 70.616 190.654 69.816 191.678 69.256C192.702 68.696 193.878 68.416 195.206 68.416C196.502 68.416 197.654 68.688 198.662 69.232C199.67 69.776 200.454 70.552 201.014 71.56C201.59 72.568 201.878 73.744 201.878 75.088ZM197.678 74.008C197.678 73.304 197.438 72.744 196.958 72.328C196.478 71.912 195.878 71.704 195.158 71.704C194.47 71.704 193.886 71.904 193.406 72.304C192.942 72.704 192.654 73.272 192.542 74.008H197.678Z" fill="#35C566"/>
</g>
<defs>
<clipPath id="clip0_4_2">
<rect width="280" height="104" fill="white"/>
</clipPath>
<clipPath id="clip1_4_2">
<rect width="77" height="104" fill="white"/>
</clipPath>
</defs>
</svg>
