<svg width="25" height="33" viewBox="0 0 25 33" fill="none" xmlns="http://www.w3.org/2000/svg">
<g clip-path="url(#clip0_49_198)">
<path d="M24.5182 5.44631C25.2539 4.56975 25.1367 3.26779 24.2513 2.53947C23.3659 1.81115 22.0507 1.92717 21.3151 2.80373L12.5 13.2774L3.68487 2.80373C2.94919 1.92717 1.63408 1.81115 0.748668 2.53947C-0.136748 3.26779 -0.253936 4.56975 0.481741 5.44631L9.78513 16.5L0.481741 27.5537C-0.253936 28.4303 -0.136748 29.7322 0.748668 30.4606C1.63408 31.1889 2.94919 31.0729 3.68487 30.1963L12.5 19.7227L21.3151 30.1963C22.0507 31.0729 23.3659 31.1889 24.2513 30.4606C25.1367 29.7322 25.2539 28.4303 24.5182 27.5537L15.2148 16.5L24.5182 5.44631Z" fill="white"/>
</g>
<defs>
<clipPath id="clip0_49_198">
<rect width="25" height="33" fill="white"/>
</clipPath>
</defs>
</svg>
